<svg width="30" height="28" viewBox="0 0 30 28" fill="none" xmlns="http://www.w3.org/2000/svg">
<path d="M18.5709 2.83618C18.2325 2.17099 17.7219 1.61346 17.0947 1.22435C16.4675 0.835232 15.7478 0.629463 15.0141 0.629463C14.2803 0.629463 13.5606 0.835232 12.9335 1.22435C12.3063 1.61346 11.7957 2.17099 11.4573 2.83618L11.3868 2.97599C11.3526 3.04795 11.3204 3.12402 11.2902 3.19598L0.826019 27.3705H6.5753L8.19927 23.6307L12.5962 13.4863L14.997 7.90424L17.1683 12.9415L21.674 23.3469L23.4247 27.3705H29.174L18.5709 2.83618Z" fill="url(#paint0_linear_521_252)"/>
<path d="M18.6655 3.11169C18.4576 2.60245 18.139 2.14825 17.7337 1.7835C17.2852 1.35563 16.7466 1.03862 16.1593 0.856877C15.572 0.675132 14.9517 0.6335 14.3462 0.735186C13.7407 0.836872 13.1661 1.07916 12.6666 1.44341C12.1672 1.80765 11.7562 2.28414 11.4653 2.83618L11.3948 2.97599C11.3606 3.04795 11.3284 3.12402 11.2983 3.19598L0.834045 27.3705H6.58333L8.20729 23.6307L12.6043 13.4863L15.005 7.90424L15.0271 7.94536L15.2565 7.42725C15.2565 7.42725 17.4581 3.72643 20.0339 6.25532L18.6655 3.11169Z" fill="#F15A29"/>
<defs>
<linearGradient id="paint0_linear_521_252" x1="22.1861" y1="26.2177" x2="1.59892" y2="5.86996" gradientUnits="userSpaceOnUse">
<stop stop-color="#FDB934"/>
<stop offset="1" stop-color="#F15A29"/>
</linearGradient>
</defs>
</svg>
