<svg width="20" height="21" viewBox="0 0 20 21" fill="none" xmlns="http://www.w3.org/2000/svg">
<path fill-rule="evenodd" clip-rule="evenodd" d="M10 0.5C4.47727 0.5 0 4.97727 0 10.5C0 16.0227 4.47727 20.5 10 20.5C15.5227 20.5 20 16.0227 20 10.5C20 4.97727 15.5227 0.5 10 0.5ZM6.36364 9.59091C6.12253 9.59091 5.8913 9.68669 5.72081 9.85718C5.55032 10.0277 5.45455 10.2589 5.45455 10.5C5.45455 10.7411 5.55032 10.9723 5.72081 11.1428C5.8913 11.3133 6.12253 11.4091 6.36364 11.4091H13.6364C13.8775 11.4091 14.1087 11.3133 14.2792 11.1428C14.4497 10.9723 14.5455 10.7411 14.5455 10.5C14.5455 10.2589 14.4497 10.0277 14.2792 9.85718C14.1087 9.68669 13.8775 9.59091 13.6364 9.59091H6.36364Z" fill="#212529"/>
</svg>
