<svg width="24" height="24" viewBox="0 0 24 24" fill="none" xmlns="http://www.w3.org/2000/svg">
<path d="M13.455 7.455C13.6663 7.25384 13.9475 7.14262 14.2392 7.14483C14.531 7.14704 14.8104 7.26249 15.0187 7.46684C15.2269 7.67118 15.3476 7.94842 15.3553 8.24006C15.363 8.53171 15.2571 8.81494 15.06 9.03L9.075 16.515C8.97209 16.6259 8.84788 16.7148 8.7098 16.7766C8.57172 16.8383 8.42261 16.8716 8.27138 16.8744C8.12015 16.8772 7.96991 16.8494 7.82964 16.7929C7.68936 16.7363 7.56195 16.652 7.455 16.545L3.486 12.576C3.37547 12.473 3.28682 12.3488 3.22533 12.2108C3.16384 12.0728 3.13078 11.9238 3.12811 11.7728C3.12545 11.6217 3.15323 11.4717 3.20982 11.3316C3.2664 11.1915 3.35061 11.0643 3.45744 10.9574C3.56427 10.8506 3.69152 10.7664 3.8316 10.7098C3.97169 10.6532 4.12173 10.6255 4.27278 10.6281C4.42384 10.6308 4.57281 10.6638 4.71081 10.7253C4.84881 10.7868 4.97301 10.8755 5.076 10.986L8.217 14.1255L13.425 7.488C13.4343 7.47642 13.4444 7.4654 13.455 7.455ZM12.075 15.165L13.455 16.545C13.5619 16.6517 13.6892 16.7358 13.8294 16.7923C13.9695 16.8487 14.1196 16.8764 14.2706 16.8736C14.4217 16.8708 14.5706 16.8376 14.7085 16.776C14.8465 16.7144 14.9706 16.6256 15.0735 16.515L21.0615 9.03C21.1691 8.92381 21.2541 8.79702 21.3116 8.65722C21.3691 8.51741 21.3978 8.36746 21.396 8.21631C21.3943 8.06517 21.3621 7.91593 21.3013 7.7775C21.2406 7.63908 21.1526 7.51431 21.0426 7.41065C20.9326 7.30699 20.8028 7.22656 20.661 7.17417C20.5193 7.12178 20.3684 7.0985 20.2174 7.10572C20.0664 7.11294 19.9184 7.15051 19.7823 7.21619C19.6461 7.28187 19.5246 7.37432 19.425 7.488L14.2155 14.1255L13.488 13.3965L12.0735 15.165H12.075Z" fill="#14C326"/>
</svg>
