<svg width="16" height="17" viewBox="0 0 16 17" fill="none" xmlns="http://www.w3.org/2000/svg">
<path d="M15.8045 15.3621L11.8252 11.3828C12.9096 10.0565 13.4428 8.36416 13.3144 6.65581C13.1861 4.94746 12.406 3.35379 11.1356 2.20445C9.86517 1.05511 8.20159 0.438027 6.48895 0.480848C4.77632 0.523669 3.14566 1.22311 1.93426 2.43451C0.722871 3.6459 0.0234253 5.27656 -0.019396 6.9892C-0.0622172 8.70183 0.554862 10.3654 1.7042 11.6358C2.85354 12.9062 4.44721 13.6863 6.15557 13.8147C7.86392 13.943 9.55626 13.4099 10.8825 12.3254L14.8619 16.3048C14.9876 16.4262 15.156 16.4934 15.3308 16.4919C15.5056 16.4904 15.6728 16.4203 15.7964 16.2967C15.92 16.173 15.9901 16.0058 15.9916 15.831C15.9932 15.6562 15.926 15.4878 15.8045 15.3621ZM6.66653 12.5001C5.61169 12.5001 4.58054 12.1873 3.70348 11.6013C2.82642 11.0152 2.14283 10.1823 1.73916 9.20775C1.3355 8.23321 1.22988 7.16085 1.43567 6.12629C1.64146 5.09172 2.14941 4.14141 2.89529 3.39553C3.64117 2.64965 4.59148 2.1417 5.62604 1.93591C6.66061 1.73012 7.73296 1.83574 8.70751 2.23941C9.68204 2.64308 10.515 3.32666 11.101 4.20373C11.6871 5.08079 11.9999 6.11194 11.9999 7.16677C11.9983 8.58077 11.4359 9.9364 10.436 10.9363C9.43616 11.9361 8.08053 12.4985 6.66653 12.5001Z" fill="#2382F7"/>
</svg>
